<?xml version="1.0" encoding="utf-8"?>
<!-- Generator: Adobe Illustrator 16.0.0, SVG Export Plug-In . SVG Version: 6.00 Build 0)  -->
<!DOCTYPE svg PUBLIC "-//W3C//DTD SVG 1.1//EN" "http://www.w3.org/Graphics/SVG/1.1/DTD/svg11.dtd" [
	<!ENTITY ns_flows "http://ns.adobe.com/Flows/1.0/">
	<!ENTITY ns_extend "http://ns.adobe.com/Extensibility/1.0/">
	<!ENTITY ns_ai "http://ns.adobe.com/AdobeIllustrator/10.0/">
	<!ENTITY ns_graphs "http://ns.adobe.com/Graphs/1.0/">
]>
<svg version="1.1" id="Capa_1" xmlns:x="&ns_extend;" xmlns:i="&ns_ai;" xmlns:graph="&ns_graphs;"
	 xmlns="http://www.w3.org/2000/svg" xmlns:xlink="http://www.w3.org/1999/xlink" xmlns:a="http://ns.adobe.com/AdobeSVGViewerExtensions/3.0/"
	 x="0px" y="0px" width="148px" height="148px" viewBox="0 0 188.667 148" enable-background="new 0 0 188.667 148"
	 xml:space="preserve">
<path fill="#64A33D" d="M120.632,22.268c2.634-0.097,3.565,1.356,3.762,3.459c0.167,1.779,0.065,3.738,2.617,3.733
	c2.514-0.004,5.516,2.841,7.373-1.292c1.268-2.823,3.358-2.777,5.689-1.31c0.65,0.409,1.261,0.887,1.921,1.276
	c2.722,1.604,3.359,3.582,1.266,6.192c-0.999,1.244-1.878,2.662-0.127,3.966c1.923,1.433,1.943,5.505,6.081,3.955
	c3.83-1.435,4.516-0.734,6.222,4.678c1.065,3.382,0.562,4.651-2.954,5.567c-2.353,0.614-2.584,1.875-2.746,3.979
	c-0.246,3.181-0.271,5.688,3.603,6.708c0.777,0.206,1.344,2.444,1.4,3.772c0.049,1.101-0.811,2.234-1.242,3.364
	c-1.025,2.668-2.767,3.559-5.433,2.235c-1.647-0.816-3.287-1.54-4.516,0.643c-1.182,2.1-4.97,3.15-2.412,6.744
	c1.826,2.564,0.708,4.412-1.942,5.768c-5.138,2.625-5.096,2.676-8.437-2.088c-0.352-0.502-0.939-1.199-1.404-1.188
	c-1.749,0.039-3.488,0.484-5.234,0.498c-2.75,0.023-2.228,2.348-2.711,3.793c-0.724,2.17-1.962,3.074-4.183,2.633
	c-1.4-0.279-2.848-0.434-4.179-0.908c-1.804-0.643-2.943-1.785-2.379-4.018c0.431-1.707,1.499-3.693-1.022-4.83
	c-2.412-1.088-4.227-4.383-7.633-1.197c-2.496,2.334-3.61,1.664-6.719-2.373c-1.652-2.147-2.598-4.132,0.163-6.17
	c0.924-0.685,2.385-1.734,2.308-2.482c-0.235-2.249-0.961-4.492-1.836-6.595c-0.209-0.505-1.731-0.569-2.666-0.648
	c-3.662-0.309-4.571-1.206-4.468-4.576c0.176-5.718,0.653-6.368,4.705-6.367c1.496,0.001,3.311,0.502,3.551-1.792
	c0.259-2.461,4.038-4.738,0.238-7.456c-2.46-1.759-2.58-3.91-0.177-6.01c0.656-0.573,1.191-1.29,1.763-1.957
	c1.773-2.063,3.625-2.323,5.585-0.259c1.229,1.295,2.469,2.834,4.386,1.135c1.847-1.637,6.156-1.113,4.801-5.643
	c-0.796-2.662,0.546-4.193,3.292-4.492C118.249,22.575,119.556,22.4,120.632,22.268z M121.911,76.54
	c11.496,0.358,21.099-8.581,21.486-20c0.372-10.987-8.983-20.767-20.174-21.089c-11.18-0.323-20.559,8.668-20.967,20.099
	C101.86,66.691,110.756,76.192,121.911,76.54z"/>
<path fill="#247838" d="M64.231,4.186c2.242-0.149,3.073,1.063,3.297,2.852c0.187,1.513,0.149,3.185,2.325,3.115
	c2.142-0.067,4.773,2.281,6.252-1.29c1.006-2.438,2.791-2.454,4.816-1.263c0.563,0.333,1.095,0.725,1.668,1.04
	c2.362,1.297,2.956,2.967,1.237,5.246c-0.818,1.087-1.532,2.316-0.006,3.383c1.676,1.172,1.799,4.643,5.284,3.216
	c3.227-1.32,3.83-0.742,5.423,3.828c0.993,2.854,0.598,3.95-2.376,4.821c-1.989,0.583-2.154,1.663-2.238,3.462
	c-0.127,2.717-0.085,4.854,3.242,5.625c0.668,0.155,1.208,2.05,1.291,3.18c0.07,0.938-0.634,1.927-0.974,2.899
	c-0.805,2.3-2.267,3.104-4.573,2.044c-1.425-0.654-2.841-1.228-3.832,0.664c-0.953,1.82-4.154,2.812-1.884,5.809
	c1.623,2.141,0.717,3.745-1.509,4.967c-4.311,2.368-4.273,2.411-7.243-1.564c-0.313-0.417-0.831-0.997-1.228-0.976
	c-1.488,0.078-2.962,0.502-4.448,0.559c-2.343,0.09-1.839,2.058-2.214,3.304c-0.561,1.867-1.593,2.67-3.497,2.35
	c-1.2-0.201-2.438-0.297-3.587-0.667c-1.553-0.502-2.553-1.446-2.13-3.363c0.323-1.466,1.184-3.188-0.995-4.092
	c-2.083-0.864-3.714-3.628-6.536-0.825c-2.068,2.054-3.034,1.513-5.787-1.85c-1.464-1.789-2.319-3.455-0.021-5.264
	c0.771-0.606,1.99-1.538,1.903-2.175c-0.257-1.91-0.934-3.803-1.731-5.574c-0.192-0.425-1.49-0.44-2.29-0.484
	c-3.128-0.169-3.928-0.911-3.926-3.786c0.004-4.878,0.395-5.443,3.849-5.547c1.275-0.038,2.834,0.343,2.979-1.619
	c0.159-2.104,3.32-4.143,0.013-6.361c-2.142-1.436-2.299-3.266-0.305-5.117c0.545-0.506,0.982-1.131,1.453-1.713
	c1.459-1.803,3.03-2.074,4.753-0.363c1.082,1.072,2.177,2.352,3.769,0.854c1.532-1.442,5.218-1.105,3.947-4.933
	c-0.748-2.249,0.356-3.588,2.691-3.913C62.208,4.509,63.317,4.327,64.231,4.186z M66.711,50.412
	c9.807,0.011,17.762-7.854,17.802-17.597c0.035-9.374-8.189-17.471-17.735-17.46c-9.539,0.012-17.302,7.915-17.357,17.668
	C49.367,42.531,57.194,50.4,66.711,50.412z"/>
<path fill="#79AB3A" d="M73.095,60.864c1.646,0.044,2.168,0.985,2.208,2.303c0.033,1.115-0.107,2.331,1.482,2.43
	c1.566,0.096,3.323,1.986,4.643-0.515c0.902-1.708,2.202-1.598,3.597-0.592c0.389,0.28,0.749,0.602,1.146,0.871
	c1.633,1.105,1.951,2.362,0.544,3.907c-0.67,0.735-1.275,1.584-0.235,2.465c1.142,0.968,0.994,3.505,3.631,2.703
	c2.441-0.743,2.843-0.28,3.691,3.158c0.53,2.148,0.166,2.919-2.059,3.353c-1.49,0.289-1.685,1.064-1.867,2.369
	c-0.279,1.971-0.394,3.531,1.979,4.32c0.475,0.158,0.74,1.574,0.724,2.404c-0.014,0.688-0.593,1.359-0.906,2.047
	c-0.743,1.621-1.864,2.107-3.472,1.178c-0.994-0.574-1.986-1.088-2.837,0.223c-0.821,1.26-3.221,1.766-1.77,4.104
	c1.036,1.67,0.266,2.777-1.438,3.516c-3.302,1.434-3.278,1.467-5.171-1.633c-0.2-0.326-0.538-0.783-0.828-0.795
	c-1.091-0.045-2.191,0.164-3.279,0.105c-1.715-0.096-1.48,1.373-1.839,2.256c-0.536,1.322-1.343,1.836-2.709,1.473
	c-0.86-0.227-1.756-0.381-2.566-0.73c-1.099-0.471-1.764-1.227-1.324-2.596c0.336-1.045,1.08-2.242-0.447-3.049
	c-1.458-0.771-2.458-2.896-4.706-1.045c-1.646,1.354-2.314,0.895-4.091-1.744c-0.944-1.402-1.454-2.676,0.344-3.836
	c0.604-0.391,1.556-0.986,1.536-1.455c-0.058-1.41-0.422-2.836-0.883-4.18c-0.11-0.322-1.058-0.422-1.636-0.51
	c-2.27-0.336-2.801-0.932-2.604-3.027c0.337-3.553,0.659-3.94,3.183-3.78c0.933,0.06,2.042,0.443,2.282-0.976
	c0.259-1.521,2.702-2.792,0.444-4.635c-1.465-1.192-1.455-2.537,0.126-3.75c0.431-0.332,0.792-0.757,1.175-1.149
	c1.187-1.214,2.35-1.304,3.488,0.06c0.715,0.854,1.426,1.863,2.688,0.88c1.215-0.947,3.878-0.451,3.213-3.325
	c-0.392-1.69,0.505-2.591,2.227-2.669C71.599,60.961,72.421,60.905,73.095,60.864z M71.753,94.717
	c7.145,0.678,13.479-4.514,14.171-11.609c0.665-6.828-4.776-13.289-11.733-13.931c-6.951-0.641-13.147,4.59-13.852,11.693
	C59.652,87.793,64.82,94.061,71.753,94.717z"/>
<g>
	<g>
		<path fill="#3B97D3" d="M3.865,107.488h14.116c2.025,0,3.361,1.07,4.009,3.209v9.473c0,0.846-0.569,1.732-1.709,2.66
			c-0.647,0.449-1.414,0.674-2.3,0.674H14.71v0.064c4.474,7.301,6.899,11.324,7.279,12.07h-4.705
			c-0.563-1.027-3.018-5.072-7.364-12.135v-4.029h6.414c0.83,0,1.4-0.381,1.71-1.139c0.042-0.254,0.063-0.457,0.063-0.613v-4.432
			c0-0.844-0.387-1.414-1.16-1.709c-0.239-0.041-0.443-0.063-0.612-0.063H7.895v24.119h-4.03V107.488z"/>
		<path fill="#3B97D3" d="M24.1,107.488h16.079v4.031H28.13v8.039h12.049v4.01H28.13v8.039h12.049v4.031H24.1V107.488z"/>
		<path fill="#3B97D3" d="M42.311,107.488h14.391c1.604,0,2.778,0.887,3.524,2.66c0.141,0.449,0.21,0.971,0.21,1.561v19.709
			c0,2.012-0.906,3.377-2.722,4.094c-0.422,0.084-0.76,0.127-1.013,0.127h-8.335v-4.031h6.204c0.745,0,1.272-0.266,1.582-0.801
			c0.127-0.24,0.19-0.473,0.19-0.697v-17.092c0-0.857-0.563-1.357-1.688-1.498h-8.313v24.119h-4.03V107.488L42.311,107.488z"/>
		<path fill="#3B97D3" d="M62.526,107.488h16.079v4.031H66.556v8.039h12.049v4.01H66.556v8.039h12.049v4.031H62.526V107.488
			L62.526,107.488z"/>
		<path fill="#3B97D3" d="M80.736,107.488h14.18c1.604,0,2.828,0.867,3.672,2.598c0.183,0.563,0.274,1.174,0.274,1.834v5.043
			c0,2.225-0.886,3.68-2.658,4.369c-0.535,0.184-1.126,0.273-1.773,0.273h-7.639v-3.967h6.204c0.745,0,1.272-0.268,1.583-0.801
			c0.126-0.24,0.19-0.473,0.19-0.697v-3.123c0-0.857-0.563-1.357-1.689-1.498h-8.313v24.119h-4.03V107.488L80.736,107.488z"/>
		<path fill="#3B97D3" d="M100.951,107.488h14.117c2.025,0,3.361,1.07,4.009,3.209v9.473c0,0.846-0.569,1.732-1.709,2.66
			c-0.647,0.449-1.414,0.674-2.3,0.674h-3.271v0.064c4.474,7.301,6.899,11.324,7.279,12.07h-4.705
			c-0.563-1.027-3.018-5.072-7.364-12.135v-4.029h6.415c0.829,0,1.398-0.381,1.709-1.139c0.042-0.254,0.063-0.457,0.063-0.613
			v-4.432c0-0.844-0.387-1.414-1.16-1.709c-0.239-0.041-0.443-0.063-0.611-0.063h-8.441v24.119h-4.03V107.488L100.951,107.488z"/>
		<path fill="#3B97D3" d="M125.281,107.488h10.087c1.603,0,2.826,0.867,3.672,2.598c0.182,0.563,0.273,1.174,0.273,1.834v19.287
			c0,2.025-0.865,3.412-2.596,4.156c-0.45,0.184-0.9,0.275-1.35,0.275h-10.087c-1.956,0-3.277-0.998-3.966-2.996
			c-0.086-0.211-0.128-0.506-0.128-0.887v-20.385c0-1.604,0.866-2.805,2.596-3.607C124.149,107.582,124.648,107.488,125.281,107.488
			z M125.217,113.293v16.543c0,0.844,0.38,1.414,1.139,1.709c0.254,0.043,0.465,0.063,0.634,0.063h6.458
			c0.745,0,1.272-0.266,1.583-0.801c0.126-0.238,0.188-0.473,0.188-0.695V113.02c0-0.859-0.563-1.357-1.688-1.5h-6.542
			c-0.844,0-1.413,0.381-1.709,1.141C125.239,112.912,125.217,113.123,125.217,113.293z"/>
		<path fill="#3B97D3" d="M141.402,107.488h4.093l9.939,19.287h0.063v-19.287h4.031v28.15h-3.945
			c-0.535-0.844-3.123-5.816-7.766-14.918c-0.21-0.311-0.984-1.787-2.321-4.432h-0.063v19.35h-4.03L141.402,107.488L141.402,107.488
			z"/>
		<path fill="#3B97D3" d="M161.617,107.488h4.03v28.15h-4.03V107.488z"/>
		<path fill="#3B97D3" d="M167.736,107.488h4.031v14.033c0.394-0.576,2.869-5.254,7.428-14.033h4.62v0.064l-7.364,13.969h2.807
			c2.349,0,3.847,1.049,4.494,3.145l0.063,0.822v10.15h-4.009v-8.252c0-0.828-0.388-1.398-1.161-1.709
			c-0.253-0.041-0.457-0.063-0.611-0.063h-6.268v10.023h-4.03V107.488L167.736,107.488z"/>
	</g>
</g>
<g>
	<path fill="#00246B" d="M65.278,142.057c0.101,0.158,0.149,0.338,0.149,0.537v1.176c0,0.389-0.137,0.719-0.411,0.992
		s-0.606,0.412-0.994,0.412h-2.395c-0.1,0-0.149-0.051-0.149-0.15v-0.947c0-0.1,0.05-0.15,0.149-0.15h1.971
		c0.222,0,0.333-0.109,0.333-0.332v-0.52c0-0.205-0.09-0.33-0.271-0.373l-1.426-0.346c-0.197-0.035-0.371-0.129-0.52-0.279
		c-0.007-0.006-0.014-0.012-0.021-0.02c-0.05-0.053-0.093-0.109-0.129-0.166c-0.101-0.158-0.15-0.338-0.15-0.537v-1.01
		c0-0.387,0.137-0.717,0.412-0.992c0.274-0.273,0.605-0.41,0.994-0.41h2.27c0.101,0,0.15,0.049,0.15,0.148v0.949
		c0,0.098-0.05,0.148-0.15,0.148h-1.847c-0.221,0-0.332,0.111-0.332,0.332v0.354c0,0.205,0.09,0.33,0.271,0.375l1.426,0.344
		c0.197,0.035,0.37,0.129,0.521,0.279c0.005,0.006,0.012,0.012,0.021,0.021C65.199,141.945,65.242,142,65.278,142.057z"/>
	<path fill="#00246B" d="M83.973,142.398v2.625c0,0.1-0.049,0.15-0.146,0.15h-1.202c-0.1,0-0.149-0.051-0.149-0.15v-2.625
		l-1.889-3.309c-0.021-0.035-0.033-0.064-0.033-0.09c0-0.039,0.032-0.059,0.096-0.059h1.389c0.1,0,0.178,0.049,0.232,0.148
		l0.953,1.672l0.952-1.672c0.056-0.1,0.133-0.148,0.232-0.148h1.39c0.063,0,0.096,0.02,0.096,0.059c0,0.023-0.011,0.055-0.033,0.09
		L83.973,142.398z"/>
	<path fill="#00246B" d="M104.485,142.057c0.101,0.158,0.15,0.338,0.15,0.537v1.176c0,0.389-0.138,0.719-0.411,0.992
		c-0.275,0.273-0.606,0.412-0.994,0.412h-2.395c-0.101,0-0.151-0.051-0.151-0.15v-0.947c0-0.1,0.051-0.15,0.151-0.15h1.97
		c0.222,0,0.333-0.109,0.333-0.332v-0.52c0-0.205-0.09-0.33-0.27-0.373l-1.428-0.346c-0.195-0.035-0.369-0.129-0.519-0.279
		c-0.007-0.006-0.013-0.012-0.021-0.02c-0.05-0.053-0.093-0.109-0.129-0.166c-0.1-0.158-0.149-0.338-0.149-0.537v-1.01
		c0-0.387,0.137-0.717,0.411-0.992c0.274-0.273,0.605-0.41,0.993-0.41h2.271c0.101,0,0.15,0.049,0.15,0.148v0.949
		c0,0.098-0.05,0.148-0.15,0.148h-1.846c-0.222,0-0.332,0.111-0.332,0.332v0.354c0,0.205,0.09,0.33,0.27,0.375l1.427,0.344
		c0.196,0.035,0.369,0.129,0.52,0.279c0.005,0.006,0.013,0.012,0.021,0.021C104.407,141.945,104.45,142,104.485,142.057z"/>
	<path fill="#00246B" d="M120.985,140.188h-1.072c-0.1,0-0.15-0.049-0.15-0.145v-0.953c0-0.1,0.051-0.148,0.15-0.148h3.833
		c0.1,0,0.15,0.049,0.15,0.148v0.953c0,0.096-0.05,0.145-0.15,0.145h-1.063c-0.066,0-0.101,0.033-0.101,0.1v4.736
		c0,0.1-0.049,0.15-0.146,0.15h-1.202c-0.1,0-0.149-0.051-0.149-0.15v-4.736C121.084,140.221,121.051,140.188,120.985,140.188z"/>
	<path fill="#00246B" d="M139.022,143.77v-4.68c0-0.1,0.051-0.148,0.15-0.148h3.444c0.1,0,0.148,0.049,0.148,0.148v0.949
		c0,0.1-0.049,0.148-0.148,0.148h-1.997c-0.066,0-0.1,0.033-0.1,0.1v1.047c0,0.068,0.033,0.1,0.1,0.1h1.664
		c0.1,0,0.149,0.051,0.149,0.15v0.947c0,0.1-0.05,0.15-0.149,0.15h-1.664c-0.066,0-0.1,0.033-0.1,0.1v0.607
		c0,0.359,0.181,0.539,0.541,0.539h1.659c0.1,0,0.149,0.051,0.149,0.15v0.947c0,0.1-0.05,0.148-0.149,0.148h-2.291
		c-0.389,0-0.72-0.137-0.994-0.41C139.16,144.488,139.022,144.158,139.022,143.77z"/>
	<path fill="#00246B" d="M160.807,145.174c-0.1,0-0.16-0.051-0.182-0.15l-0.985-4.18v4.18c0,0.1-0.05,0.15-0.146,0.15h-1.202
		c-0.1,0-0.149-0.051-0.149-0.15v-5.934c0-0.1,0.05-0.148,0.149-0.148h1.868c0.1,0,0.16,0.049,0.183,0.148l0.993,4.209l0.994-4.209
		c0.022-0.1,0.083-0.148,0.183-0.148h1.867c0.1,0,0.149,0.049,0.149,0.148v5.934c0,0.1-0.05,0.15-0.149,0.15h-1.202
		c-0.097,0-0.146-0.051-0.146-0.15v-4.18l-0.985,4.18c-0.021,0.1-0.083,0.15-0.183,0.15H160.807z"/>
	<path fill="#00246B" d="M183.666,142.057c0.1,0.158,0.15,0.338,0.15,0.537v1.176c0,0.389-0.137,0.719-0.412,0.992
		c-0.274,0.273-0.605,0.412-0.994,0.412h-2.395c-0.1,0-0.149-0.051-0.149-0.15v-0.947c0-0.1,0.05-0.15,0.149-0.15h1.971
		c0.222,0,0.334-0.109,0.334-0.332v-0.52c0-0.205-0.091-0.33-0.271-0.373l-1.427-0.346c-0.197-0.035-0.37-0.129-0.52-0.279
		c-0.007-0.006-0.013-0.012-0.021-0.02c-0.05-0.053-0.093-0.109-0.129-0.166c-0.1-0.158-0.149-0.338-0.149-0.537v-1.01
		c0-0.387,0.137-0.717,0.411-0.992c0.274-0.273,0.605-0.41,0.994-0.41h2.27c0.101,0,0.15,0.049,0.15,0.148v0.949
		c0,0.098-0.05,0.148-0.15,0.148h-1.846c-0.222,0-0.333,0.111-0.333,0.332v0.354c0,0.205,0.09,0.33,0.271,0.375l1.426,0.344
		c0.197,0.035,0.37,0.129,0.521,0.279c0.006,0.006,0.013,0.012,0.021,0.021C183.586,141.945,183.629,142,183.666,142.057z"/>
</g>
<polygon fill="#3B97D3" points="7.893,140.416 7.893,134.518 3.865,134.518 3.865,140.416 3.865,142.738 3.865,143.521 
	59.31,143.521 59.31,140.416 "/>
<g>
	<g>
		<path fill="#FFFFFF" d="M-104,60.167c1.935,0,1.935-3,0-3S-105.935,60.167-104,60.167L-104,60.167z"/>
	</g>
</g>
<g>
	<g>
		<path fill="#FFFFFF" d="M277.333,61.5c1.935,0,1.935-3,0-3S275.399,61.5,277.333,61.5L277.333,61.5z"/>
	</g>
</g>
</svg>
