<?xml version="1.0" ?><!DOCTYPE svg  PUBLIC '-//W3C//DTD SVG 1.1//EN'  'http://www.w3.org/Graphics/SVG/1.1/DTD/svg11.dtd'><svg enable-background="new 0 0 512 512" height="128px" id="Layer_1" version="1.1" viewBox="0 0 512 512" width="128px" xml:space="preserve" xmlns="http://www.w3.org/2000/svg" xmlns:xlink="http://www.w3.org/1999/xlink"><g><path d="M346.574,37H117c-12.703,0-23,10.297-23,23v392c0,12.702,10.297,23,23,23h278c12.703,0,23-10.298,23-23    V108.426L346.574,37z" fill="#77D5F7"/><path d="M368.883,108H418l-71-71v49.118C347,99.002,355.998,108,368.883,108z" fill="#097CB0"/><path d="M209,329c0,12.702-10.297,23-23,23h-5c-12.703,0-23-10.298-23-23V194c0-12.703,10.297-23,23-23h5    c12.703,0,23,10.297,23,23V329z" fill="#6E757F"/><path d="M281,324c0,12.702-10.298,23-23,23h-5c-12.703,0-23-10.298-23-23v-48c0-12.702,10.297-23,23-23h5    c12.702,0,23,10.298,23,23V324z" fill="#B7BABF"/><path d="M354,324c0,12.702-10.298,23-23,23h-5c-12.702,0-23-10.298-23-23v-82c0-12.703,10.298-23,23-23h5    c12.702,0,23,10.297,23,23V324z" fill="#A79A8B"/></g></svg>